<svg data-v-423bf9ae="" xmlns="http://www.w3.org/2000/svg" viewBox="0 0 353 125" class="iconLeftSlogan"><!----><!----><!----><g data-v-423bf9ae="" id="dc66048e-d7d4-46f0-a696-b9410a52a054" fill="white" transform="matrix(4.8979591836734695,0,0,4.8979591836734695,166.00722192014968,-2.7428566180929863)"><path d="M3.47 5.43L3.50 5.43L8.09 12.60L10.72 12.60L10.72 1.05L8.09 1.05L8.09 8.22L8.06 8.22L3.47 1.05L0.84 1.05L0.84 12.60L3.47 12.60ZM14.74 5.42L12.26 5.42L12.26 9.44C12.26 11.84 13.47 12.81 16.16 12.81C18.84 12.81 20.05 11.84 20.05 9.44L20.05 5.42L17.57 5.42L17.57 8.83C17.57 10.25 17.19 10.79 16.16 10.79C15.12 10.79 14.74 10.25 14.74 8.83ZM29.79 5.42L26.57 5.42L24.07 7.92L24.07 0.56L21.59 0.56L21.59 12.60L24.07 12.60L24.07 9.73L26.94 12.60L30.13 12.60L26.38 8.85ZM29.76 9.02C29.76 11.12 31.23 12.81 33.33 12.81C34.31 12.81 35.15 12.38 35.69 11.79L35.71 11.79L35.71 12.60L38.16 12.60L38.16 5.42L35.69 5.42L35.69 6.10C35.10 5.53 34.30 5.21 33.33 5.21C31.23 5.21 29.76 6.92 29.76 9.02ZM32.40 9.02C32.40 8.02 33.14 7.32 34.08 7.32C35 7.32 35.74 8.02 35.74 9.02C35.74 10.00 35.04 10.70 34.08 10.70C33.07 10.70 32.40 10.00 32.40 9.02Z"></path></g><!----><g data-v-423bf9ae="" id="4953df05-cbda-4963-985c-2902e0bfbf3b" transform="matrix(1.1777777777777778,0,0,1.1777777777777778,0.9392478095160612,-12.37777777777778)" stroke="none" fill="white"><path d="M3 11a3 3 0 100 6c1.301 0 2.397-.842 2.813-2h7.688l18.375 63.781v.031c-.017.014-.035.084 0 .063l-.031.063-8.031 19.344c1.449-.772 3.093-1.196 4.844-1.25l6.813-16.438h.031l.031-.125c.272-.588.376-1.085.375-1.563h77.188c1.6 0 3.294-1.306 3.594-2.906l10.719-50.094c.3-1.6-.706-2.906-2.406-2.906H19.94l-2.813-9.781v-.063h-.031C16.722 11.811 15.467 11 14.19 11H3.002zm26 88c-4.971 0-9 4.029-9 9s4.029 9 9 9 9-4.029 9-9-4.029-9-9-9zm74 0c-4.971 0-9 4.029-9 9s4.029 9 9 9 9-4.029 9-9-4.029-9-9-9zm-65.5 2a10.89 10.89 0 012.063 4h52.875c.418-1.487 1.109-2.843 2.063-4h-57z"></path></g><!----><g data-v-423bf9ae="" id="84a0b0dd-baf3-40e6-b1dc-9a491952c928" fill="white" transform="matrix(0.8313771762897479,0,0,0.8313771762897479,170.27323045810152,59.558447096751024)"><path d="M4.86 1.54Q4.43 0.91 3.25 1.20L3.25 1.20Q2.29 1.43 1.65 2.14L1.65 2.14Q0.64 3.26 0.21 5.40L0.21 5.40Q-0.09 6.86-0.18 8.67L-0.18 8.67Q-0.20 9.98-0.06 10.47L-0.06 10.47Q0.21 11.44 1.30 11.50L1.30 11.50Q1.92 11.53 2.51 11.27L2.51 11.27Q3.10 10.99 3.47 10.51L3.47 10.51Q3.85 10.02 4.18 8.89L4.18 8.89Q4.26 8.64 3.60 8.76L3.60 8.76Q3.30 8.81 3.05 8.93L3.05 8.93Q2.78 9.06 2.75 9.15L2.75 9.15Q2.50 9.99 2.23 10.48L2.23 10.48Q2.11 10.68 1.98 10.83L1.98 10.83Q1.42 10.58 1.29 9.66L1.29 9.66Q1.26 9.42 1.28 8.20L1.28 8.20Q1.37 6.41 1.69 4.92L1.69 4.92Q2.15 2.75 3.19 1.80L3.19 1.80Q3.20 1.79 3.23 1.76L3.23 1.76Q3.59 2.01 3.68 2.75L3.68 2.75Q3.76 3.36 3.55 4.29L3.55 4.29Q3.21 5.76 3.21 5.80L3.21 5.80Q3.19 5.92 3.57 5.89L3.57 5.89Q3.83 5.87 3.99 5.82L3.99 5.82Q4.63 5.65 4.67 5.41L4.67 5.41Q4.72 5.07 4.87 4.41L4.87 4.41Q5.04 3.74 5.09 3.40L5.09 3.40Q5.28 2.17 4.86 1.54L4.86 1.54ZM14.93 5.20Q14.81 6.64 14.54 7.92L14.54 7.92Q14.13 9.88 13.36 10.64L13.36 10.64Q13.27 10.55 13.19 10.38L13.19 10.38Q13.01 9.97 13.02 9.03L13.02 9.03Q13.05 7.34 13.62 5.48L13.62 5.48Q14.12 3.85 14.82 3.01L14.82 3.01Q14.90 3.25 14.94 3.62L14.94 3.62Q15.01 4.21 14.93 5.20L14.93 5.20ZM15.86 1.96Q15.65 1.79 14.92 2.05L14.92 2.05Q14.42 2.24 14.44 2.39L14.44 2.39Q14.18 2.48 14.01 2.63L14.01 2.63Q13.02 3.40 12.36 5.22L12.36 5.22Q11.81 6.70 11.62 8.50L11.62 8.50Q11.54 9.28 11.57 9.92L11.57 9.92Q11.61 10.77 11.97 11.13L11.97 11.13Q12.15 11.31 12.58 11.33L12.58 11.33Q13.13 11.36 13.95 11.02L13.95 11.02Q14.64 10.74 15.16 9.94L15.16 9.94Q15.63 9.21 15.94 7.85L15.94 7.85Q16.15 6.94 16.28 5.84L16.28 5.84Q16.44 4.44 16.44 3.78L16.44 3.78Q16.43 2.45 15.86 1.96L15.86 1.96ZM29.21 0.74Q28.90 0.79 28.65 0.91L28.65 0.91Q28.38 1.04 28.35 1.13L28.35 1.13Q27.47 3.96 26.84 7.39L26.84 7.39Q26.76 6.88 26.65 6.21L26.65 6.21Q26.35 4.44 26.30 4.05L26.30 4.05Q26.15 2.77 25.96 2.37L25.96 2.37Q25.96 2.37 25.95 2.35L25.95 2.35L25.96 2.34Q25.96 2.34 25.96 2.33L25.96 2.33Q26.00 2.08 25.37 2.20L25.37 2.20Q25.07 2.26 24.81 2.37L24.81 2.37Q24.53 2.51 24.51 2.60L24.51 2.60Q24.33 3.71 23.69 6.73L23.69 6.73Q23.14 9.34 22.93 10.89L22.93 10.89Q22.92 11.01 23.30 10.98L23.30 10.98Q23.56 10.96 23.73 10.91L23.73 10.91Q24.37 10.74 24.40 10.50L24.40 10.50Q24.60 8.97 25.15 6.38L25.15 6.38Q25.18 6.54 25.18 6.61L25.18 6.61Q25.40 7.90 25.58 8.95L25.58 8.95Q25.84 10.45 26.07 11.09L26.07 11.09Q26.12 11.24 26.46 11.21L26.46 11.21Q26.78 11.18 27.11 11.05L27.11 11.05Q27.70 10.89 27.73 10.65L27.73 10.65Q28.51 5.00 29.79 0.87L29.79 0.87Q29.87 0.62 29.21 0.74L29.21 0.74ZM40.58 2.35Q39.62 2.17 38.62 2.15L38.62 2.15Q38.52 2.03 38.04 2.11L38.04 2.11Q37.95 2.13 37.83 2.16L37.83 2.16Q36.76 2.22 35.72 2.46L35.72 2.46Q34.99 2.63 35.05 2.88L35.05 2.88Q35.10 3.08 35.83 2.91L35.83 2.91Q35.83 2.91 35.85 2.90L35.85 2.90Q35.86 2.90 35.88 2.89L35.88 2.89Q35.95 2.88 36.11 2.85L36.11 2.85Q36.27 2.82 36.50 2.80L36.50 2.80Q36.78 2.76 37.11 2.75L37.11 2.75Q35.70 7.40 35.30 10.96L35.30 10.96Q35.29 11.02 35.52 11.03L35.52 11.03Q35.73 11.04 36.01 10.99L36.01 10.99Q36.74 10.86 36.76 10.56L36.76 10.56Q37.14 7.19 38.46 2.78L38.46 2.78Q38.93 2.82 39.37 2.91L39.37 2.91Q39.81 2.99 40.39 2.72L40.39 2.72Q40.55 2.65 40.65 2.54L40.65 2.54Q40.79 2.39 40.58 2.35L40.58 2.35ZM50.23 5.31Q50.08 6.24 49.18 7.18L49.18 7.18Q48.99 7.38 48.75 7.58L48.75 7.58Q48.69 7.63 48.63 7.68L48.63 7.68Q48.41 7.59 48.16 7.58L48.16 7.58Q48.72 4.74 48.86 2.66L48.86 2.66Q49.13 2.80 49.37 2.99L49.37 2.99Q49.88 3.39 50.11 4.03L50.11 4.03Q50.34 4.65 50.23 5.31L50.23 5.31ZM47.26 2.40Q47.26 2.40 47.27 2.39L47.27 2.39Q47.26 2.40 47.26 2.40L47.26 2.40ZM52.19 11.42Q51.46 10.88 49.93 8.99L49.93 8.99Q49.26 8.17 49.14 8.05L49.14 8.05Q49.60 7.84 50.03 7.50L50.03 7.50Q51.24 6.56 51.59 5.41L51.59 5.41Q51.84 4.60 51.63 3.84L51.63 3.84Q51.42 3.07 50.80 2.53L50.80 2.53Q49.55 1.46 47.48 1.88L47.48 1.88Q47.35 1.91 47.15 1.96L47.15 1.96Q46.42 2.14 46.48 2.37L46.48 2.37Q46.54 2.58 47.25 2.40L47.25 2.40Q47.32 2.39 47.37 2.38L47.37 2.38Q47.41 2.37 47.44 2.37L47.44 2.37Q47.33 5.11 46.09 10.79L46.09 10.79Q46.03 11.04 46.67 10.92L46.67 10.92Q46.98 10.87 47.23 10.75L47.23 10.75Q47.51 10.62 47.53 10.53L47.53 10.53Q47.82 9.17 47.92 8.72L47.92 8.72Q47.93 8.72 47.93 8.72L47.93 8.72Q47.93 8.72 47.93 8.72L47.93 8.72Q48.04 8.85 48.73 9.70L48.73 9.70Q50.05 11.34 50.81 11.92L50.81 11.92Q51.04 12.09 51.75 11.83L51.75 11.83Q51.94 11.76 52.08 11.67L52.08 11.67Q52.33 11.52 52.19 11.42L52.19 11.42ZM61.82 5.20Q61.69 6.64 61.43 7.92L61.43 7.92Q61.02 9.88 60.25 10.64L60.25 10.64Q60.16 10.55 60.08 10.38L60.08 10.38Q59.90 9.97 59.91 9.03L59.91 9.03Q59.94 7.34 60.51 5.48L60.51 5.48Q61.01 3.85 61.71 3.01L61.71 3.01Q61.78 3.25 61.83 3.62L61.83 3.62Q61.90 4.21 61.82 5.20L61.82 5.20ZM62.75 1.96Q62.54 1.79 61.80 2.05L61.80 2.05Q61.30 2.24 61.33 2.39L61.33 2.39Q61.07 2.48 60.89 2.63L60.89 2.63Q59.91 3.40 59.25 5.22L59.25 5.22Q58.70 6.70 58.51 8.50L58.51 8.50Q58.43 9.28 58.45 9.92L58.45 9.92Q58.50 10.77 58.86 11.13L58.86 11.13Q59.04 11.31 59.47 11.33L59.47 11.33Q60.01 11.36 60.84 11.02L60.84 11.02Q61.52 10.74 62.04 9.94L62.04 9.94Q62.51 9.21 62.83 7.85L62.83 7.85Q63.04 6.94 63.16 5.84L63.16 5.84Q63.33 4.44 63.33 3.78L63.33 3.78Q63.31 2.45 62.75 1.96L62.75 1.96ZM72.57 11.33Q71.53 11.36 71.09 11.16L71.09 11.16Q71.94 6.57 73.06 2.08L73.06 2.08Q73.12 1.83 72.47 1.95L72.47 1.95Q72.17 2.00 71.92 2.12L71.92 2.12Q71.64 2.25 71.62 2.34L71.62 2.34Q70.50 6.83 69.64 11.47L69.64 11.47Q69.55 11.56 69.62 11.61L69.62 11.61Q69.62 11.63 69.61 11.70L69.61 11.70Q69.60 11.74 69.60 11.78L69.60 11.78Q69.58 11.94 70.22 11.83L70.22 11.83Q70.71 11.95 71.62 11.92L71.62 11.92Q72.23 11.91 72.65 11.65L72.65 11.65Q72.83 11.54 72.81 11.44L72.81 11.44Q72.78 11.33 72.57 11.33L72.57 11.33ZM94.94 2.35Q93.98 2.17 92.98 2.15L92.98 2.15Q92.88 2.03 92.40 2.11L92.40 2.11Q92.31 2.13 92.19 2.16L92.19 2.16Q91.12 2.22 90.08 2.46L90.08 2.46Q89.35 2.63 89.41 2.88L89.41 2.88Q89.46 3.08 90.19 2.91L90.19 2.91Q90.19 2.91 90.21 2.90L90.21 2.90Q90.22 2.90 90.23 2.89L90.23 2.89Q90.31 2.88 90.47 2.85L90.47 2.85Q90.63 2.82 90.86 2.80L90.86 2.80Q91.14 2.76 91.47 2.75L91.47 2.75Q90.06 7.40 89.66 10.96L89.66 10.96Q89.65 11.02 89.88 11.03L89.88 11.03Q90.09 11.04 90.37 10.99L90.37 10.99Q91.10 10.86 91.12 10.56L91.12 10.56Q91.50 7.19 92.82 2.78L92.82 2.78Q93.29 2.82 93.73 2.91L93.73 2.91Q94.17 2.99 94.75 2.72L94.75 2.72Q94.91 2.65 95.01 2.54L95.01 2.54Q95.15 2.39 94.94 2.35L94.94 2.35ZM105.88 1.31Q105.57 1.36 105.32 1.48L105.32 1.48Q105.04 1.61 105.02 1.70L105.02 1.70Q104.82 2.55 104.37 4.25L104.37 4.25Q103.92 5.94 103.72 6.80L103.72 6.80Q103.07 6.88 102.40 7.03L102.40 7.03Q102.60 6.04 103.01 4.31L103.01 4.31Q103.48 2.37 103.64 1.59L103.64 1.59Q103.69 1.34 103.06 1.46L103.06 1.46Q102.76 1.51 102.50 1.63L102.50 1.63Q102.22 1.76 102.20 1.85L102.20 1.85Q102.03 2.61 101.55 4.64L101.55 4.64Q101.14 6.41 100.93 7.44L100.93 7.44Q100.79 7.49 100.75 7.50L100.75 7.50Q100.60 7.55 100.43 7.66L100.43 7.66Q100.18 7.82 100.32 7.91L100.32 7.91Q100.49 8.01 100.82 7.94L100.82 7.94Q100.50 9.65 100.38 11.08L100.38 11.08Q100.37 11.15 100.60 11.16L100.60 11.16Q100.81 11.17 101.09 11.12L101.09 11.12Q101.81 10.98 101.83 10.69L101.83 10.69Q101.96 9.26 102.29 7.53L102.29 7.53Q102.50 7.49 102.85 7.42L102.85 7.42Q103.22 7.36 103.60 7.33L103.60 7.33Q103.13 9.44 103.04 11.13L103.04 11.13Q103.04 11.20 103.27 11.21L103.27 11.21Q103.48 11.22 103.76 11.17L103.76 11.17Q104.49 11.03 104.51 10.74L104.51 10.74Q104.59 9.17 105 7.25L105 7.25Q105.33 7.18 105.59 7.02L105.59 7.02Q105.77 6.91 105.75 6.82L105.75 6.82Q105.72 6.72 105.51 6.71L105.51 6.71Q105.34 6.71 105.12 6.71L105.12 6.71Q105.33 5.79 105.79 4.07L105.79 4.07Q106.26 2.28 106.46 1.44L106.46 1.44Q106.52 1.19 105.88 1.31L105.88 1.31ZM117.69 1.42Q116.98 1.19 115.79 1.57L115.79 1.57Q114.28 2.06 113.72 3.77L113.72 3.77Q113.37 4.83 113.55 6.11L113.55 6.11Q113.64 6.76 113.91 7.16L113.91 7.16Q113.49 7.38 113.20 7.70L113.20 7.70Q112.20 8.80 112.31 10.01L112.31 10.01Q112.38 10.70 112.85 11.11L112.85 11.11Q113.25 11.44 114.08 11.42L114.08 11.42Q114.91 11.39 115.62 10.95L115.62 10.95Q116.37 10.49 116.67 9.76L116.67 9.76Q116.73 9.61 116.45 9.60L116.45 9.60Q116.28 9.59 116.09 9.63L116.09 9.63Q115.34 9.76 115.23 10.02L115.23 10.02Q115.04 10.51 114.69 10.80L114.69 10.80Q114.67 10.81 114.66 10.82L114.66 10.82Q114.61 10.81 114.60 10.81L114.60 10.81Q114.54 10.79 114.45 10.75L114.45 10.75Q114.29 10.68 114.13 10.52L114.13 10.52Q113.85 10.23 113.77 9.63L113.77 9.63Q113.67 8.83 114.30 7.86L114.30 7.86Q114.39 7.74 114.49 7.62L114.49 7.62Q114.70 7.70 114.97 7.72L114.97 7.72Q115.38 7.74 115.87 7.51L115.87 7.51Q116.29 7.32 116.14 7.18L116.14 7.18Q115.85 6.90 115.42 6.84L115.42 6.84Q115.38 6.79 115.35 6.75L115.35 6.75Q115.14 6.45 115.04 5.89L115.04 5.89Q114.84 4.89 115.03 4.00L115.03 4.00Q115.29 2.70 116.06 2.04L116.06 2.04Q116.12 2.00 116.21 1.93L116.21 1.93Q116.22 1.93 116.22 1.93L116.22 1.93Q116.35 1.94 116.33 1.93L116.33 1.93Q116.91 2.02 116.79 2.62L116.79 2.62Q116.74 2.86 117.37 2.75L117.37 2.75Q117.68 2.69 117.93 2.58L117.93 2.58Q118.21 2.45 118.23 2.36L118.23 2.36Q118.37 1.63 117.69 1.42L117.69 1.42ZM139.71 1.59Q138.61 1.45 136.92 1.75L136.92 1.75Q136.93 1.74 136.94 1.70L136.94 1.70Q136.95 1.66 136.95 1.64L136.95 1.64Q137.02 1.39 136.37 1.50L136.37 1.50Q136.07 1.56 135.82 1.67L135.82 1.67Q135.54 1.80 135.52 1.90L135.52 1.90Q135.52 1.88 135.47 2.08L135.47 2.08Q135.28 2.18 135.21 2.30L135.21 2.30Q135.15 2.43 135.37 2.45L135.37 2.45Q134.09 7.25 133.59 10.98L133.59 10.98Q133.57 11.10 133.96 11.07L133.96 11.07Q134.21 11.05 134.38 11.00L134.38 11.00Q135.02 10.83 135.05 10.59L135.05 10.59Q135.27 8.95 135.63 7.16L135.63 7.16Q135.56 7.17 136.62 7.09L136.62 7.09Q137.27 7.05 137.60 6.75L137.60 6.75Q137.76 6.60 137.57 6.54L137.57 6.54Q137.44 6.50 137.26 6.51L137.26 6.51Q136.13 6.60 135.73 6.66L135.73 6.66Q136.15 4.65 136.79 2.24L136.79 2.24Q137.81 2.06 138.50 2.15L138.50 2.15Q138.98 2.21 139.52 1.96L139.52 1.96Q139.67 1.89 139.77 1.78L139.77 1.78Q139.92 1.62 139.71 1.59L139.71 1.59ZM147.42 11.33Q146.38 11.36 145.93 11.16L145.93 11.16Q146.79 6.57 147.90 2.08L147.90 2.08Q147.97 1.83 147.32 1.95L147.32 1.95Q147.02 2.00 146.77 2.12L146.77 2.12Q146.49 2.25 146.47 2.34L146.47 2.34Q145.35 6.83 144.48 11.47L144.48 11.47Q144.40 11.56 144.46 11.61L144.46 11.61Q144.46 11.63 144.46 11.70L144.46 11.70Q144.45 11.74 144.44 11.78L144.44 11.78Q144.42 11.94 145.07 11.83L145.07 11.83Q145.56 11.95 146.47 11.92L146.47 11.92Q147.08 11.91 147.50 11.65L147.50 11.65Q147.68 11.54 147.66 11.44L147.66 11.44Q147.63 11.33 147.42 11.33L147.42 11.33ZM158.14 5.20Q158.02 6.64 157.75 7.92L157.75 7.92Q157.34 9.88 156.57 10.64L156.57 10.64Q156.48 10.55 156.41 10.38L156.41 10.38Q156.22 9.97 156.24 9.03L156.24 9.03Q156.26 7.34 156.84 5.48L156.84 5.48Q157.34 3.85 158.03 3.01L158.03 3.01Q158.11 3.25 158.16 3.62L158.16 3.62Q158.22 4.21 158.14 5.20L158.14 5.20ZM159.07 1.96Q158.87 1.79 158.13 2.05L158.13 2.05Q157.63 2.24 157.65 2.39L157.65 2.39Q157.40 2.48 157.22 2.63L157.22 2.63Q156.24 3.40 155.57 5.22L155.57 5.22Q155.03 6.70 154.83 8.50L154.83 8.50Q154.75 9.28 154.78 9.92L154.78 9.92Q154.82 10.77 155.18 11.13L155.18 11.13Q155.37 11.31 155.80 11.33L155.80 11.33Q156.34 11.36 157.17 11.02L157.17 11.02Q157.85 10.74 158.37 9.94L158.37 9.94Q158.84 9.21 159.15 7.85L159.15 7.85Q159.37 6.94 159.49 5.84L159.49 5.84Q159.65 4.44 159.65 3.78L159.65 3.78Q159.64 2.45 159.07 1.96L159.07 1.96ZM171.65 10.27Q171.64 10.27 171.64 10.28L171.64 10.28Q171.64 10.27 171.65 10.27L171.65 10.27L171.65 10.27L171.65 10.27ZM175.48 0.67Q175.41 0.42 174.68 0.62L174.68 0.62Q173.95 0.82 174.02 1.06L174.02 1.06Q174.21 1.79 174.25 2.47L174.25 2.47Q174.27 2.95 174.13 4.01L174.13 4.01Q173.92 5.59 173.56 6.73L173.56 6.73Q173.28 7.65 172.67 8.81L172.67 8.81Q172.69 8.78 172.63 8.90L172.63 8.90Q172.55 7.21 172.55 1.98L172.55 1.98Q172.55 1.89 172.33 1.88L172.33 1.88Q172.12 1.87 171.83 1.94L171.83 1.94Q171.12 2.10 171.08 2.37L171.08 2.37Q170.71 4.98 170.11 6.81L170.11 6.81Q169.61 8.30 168.93 9.37L168.93 9.37Q168.66 8.18 168.78 5.77L168.78 5.77Q168.79 5.55 168.83 3.78L168.83 3.78Q168.86 2.54 169.26 1.94L169.26 1.94Q169.35 1.80 169.04 1.79L169.04 1.79Q168.83 1.78 168.67 1.81L168.67 1.81Q167.99 1.93 167.82 2.21L167.82 2.21Q167.44 2.78 167.38 3.94L167.38 3.94Q167.36 4.30 167.35 4.96L167.35 4.96Q167.34 5.65 167.32 5.97L167.32 5.97Q167.17 9.35 167.80 10.80L167.80 10.80Q167.88 10.96 168.40 10.87L168.40 10.87Q168.97 10.77 169.20 10.55L169.20 10.55Q170.35 9.43 171.11 7.75L171.11 7.75Q171.14 9.30 171.23 10.60L171.23 10.60Q171.25 10.77 171.70 10.69L171.70 10.69Q171.99 10.64 172.22 10.57L172.22 10.57Q173.15 10.25 173.89 8.96L173.89 8.96Q174.51 7.89 174.90 6.79L174.90 6.79Q175.31 5.63 175.55 3.89L175.55 3.89Q175.72 2.77 175.71 2.25L175.71 2.25Q175.71 1.53 175.48 0.67L175.48 0.67Z"></path></g></svg>