<svg data-v-423bf9ae="" xmlns="http://www.w3.org/2000/svg" viewBox="0 0 182.79183523995536 60" class="font"><!----><!----><!----><g data-v-423bf9ae="" id="494fb86b-817b-48e8-bab5-c955bd9db582" fill="black" transform="matrix(4.8979591836734695,0,0,4.8979591836734695,-4.114283817155027,-2.7428566180929863)"><path d="M3.47 5.43L3.50 5.43L8.09 12.60L10.72 12.60L10.72 1.05L8.09 1.05L8.09 8.22L8.06 8.22L3.47 1.05L0.84 1.05L0.84 12.60L3.47 12.60ZM14.74 5.42L12.26 5.42L12.26 9.44C12.26 11.84 13.47 12.81 16.16 12.81C18.84 12.81 20.05 11.84 20.05 9.44L20.05 5.42L17.57 5.42L17.57 8.83C17.57 10.25 17.19 10.79 16.16 10.79C15.12 10.79 14.74 10.25 14.74 8.83ZM29.79 5.42L26.57 5.42L24.07 7.92L24.07 0.56L21.59 0.56L21.59 12.60L24.07 12.60L24.07 9.73L26.94 12.60L30.13 12.60L26.38 8.85ZM29.76 9.02C29.76 11.12 31.23 12.81 33.33 12.81C34.31 12.81 35.15 12.38 35.69 11.79L35.71 11.79L35.71 12.60L38.16 12.60L38.16 5.42L35.69 5.42L35.69 6.10C35.10 5.53 34.30 5.21 33.33 5.21C31.23 5.21 29.76 6.92 29.76 9.02ZM32.40 9.02C32.40 8.02 33.14 7.32 34.08 7.32C35 7.32 35.74 8.02 35.74 9.02C35.74 10.00 35.04 10.70 34.08 10.70C33.07 10.70 32.40 10.00 32.40 9.02Z"></path></g><!----><!----></svg>